# xmcd
# 
# Track frame offsets:
#     150
#     17725
#     33907
#     48217
#     65155
#     82057
#     99950
#     116137
#     138965
#     163652
#     188290
#     215450
#     247525
#     269397
#     284180
# 
# Disc length: 3961
# 
# Revision: 3
# Processed by: cddbd v1.5.2PL0 Copyright (c) Steve Scherf et al.
# Submitted via: fre:ac v1.0.17
# 
DISCID=ce0f770f
DTITLE=Char - Singles 1976-2005 Disc 1 A-Side Disc UPCH-1511-3
DYEAR=2006
DGENRE=JPop
TTITLE0=NAVY BLUE
TTITLE1=気絶するほど悩ましい
TTITLE2=逆光線
TTITLE3=闘牛士
TTITLE4=Girl
TTITLE5=ブルークリスマス
TTITLE6=BLACK SHOES
TTITLE7=ALL AROUND ME
TTITLE8=SMOKY
TTITLE9=TODAY
TTITLE10=LET IT BLOW
TTITLE11=Touch my love again
TTITLE12=Share the wonder
TTITLE13=Long Distance Call　(Strings version)
TTITLE14=Piano (Japanese version)
EXTD=YEAR: 2006
EXTT0=
EXTT1=
EXTT2=
EXTT3=
EXTT4=
EXTT5=
EXTT6=
EXTT7=
EXTT8=
EXTT9=
EXTT10=
EXTT11=
EXTT12=
EXTT13=
EXTT14=
PLAYORDER=
